<?xml version="1.0" encoding="utf-8"?>
<!-- Generator: Adobe Illustrator 24.0.0, SVG Export Plug-In . SVG Version: 6.00 Build 0)  -->
<svg version="1.1" id="Layer_1" xmlns="http://www.w3.org/2000/svg" xmlns:xlink="http://www.w3.org/1999/xlink" x="0px" y="0px"
	 viewBox="0 0 1370.6 422.6" style="enable-background:new 0 0 1370.6 422.6;" xml:space="preserve">
<style type="text/css">
	.st0{fill:#00597D;}
	.st1{fill:#F26649;}
	.st2{fill:#D2342E;}
	.st3{fill:#DC4133;}
	.st4{fill:#F69679;}
	.st5{fill:#B72C26;}
</style>
<path class="st0" d="M257.8,323.2c2,6.8,0.8,10.9-3.5,12.2c-4.4,1.3-8.2,1.9-11.3,0.7c-3.7-1.5-7-4.5-10.4-8h-0.7
	c-7.7,4.1-17.5,6.6-29.6,7.5c-21.6,0-36.3-6.5-43.9-19.5c-4.3-8.1-6.4-14.6-6.4-19.6c0-19,8.2-31.2,24.5-36.5
	c6.5-2.5,12.1-3.7,16.8-3.7h3.2c13.7,0,24.3,2,31.9,6h0.5c0.8-6.6,1.2-13.2,1.2-19.9c0-7.5-0.7-11.2-2-11.2c-2-0.9-4.4-0.4-7.3,0.1
	c-0.4,0-0.9,0-1.3,0c-3.2,0-12.9,2.5-29.2,7.6l-2.4,0.3c-8.8,0-15.8-3-21.1-9.1c-3.8-5.5-6.2-11.9-6.9-18.6c0-3.6,1.6-5.5,4.7-5.5
	c5.3,0.9,14.3,2.7,26.8,5.5c13.7,2.5,22.7,4.2,27.1,5.1c10.2,0.6,17.9,2.9,23.1,6.9c10.5,7.6,15.8,19.6,15.8,35.8v12.5
	C255.7,299.3,255.9,316.4,257.8,323.2 M175.3,300c1,7.7,6.2,12,15.6,12.9c2.6,0.7,5.3,1,8,0.9h2.1c11.7,0,19.5-3.9,23.6-11.7
	c0.9-2.1,1.3-4.3,1.2-6.5c0-9.6-5.8-15.9-17.3-18.8c-3.2-0.7-6.5-1-9.7-0.9c-13.7,1.5-20.2,7.3-23.5,16.3
	C174.6,293.8,174.4,296.3,175.3,300"/>
<path class="st0" d="M289.9,201.8c6.3,0,15.3,5.4,27.1,16.3c3,1.4,6.3,2.1,9.6,2.1h11.5c24.1,0,40.6,10.3,49.5,30.8
	c2.6,7.5,3.9,23.9,3.9,49.4c0,18.1-4.3,29.8-12.8,35c-1.6,0.9-3.4,1.3-5.2,1.3h-0.8c-7.1,0-11.5-5.6-13.2-16.8v-5.1l0.3-3.5
	l-0.3-0.1l0.3-3.6v-2.9l0.3-13.1c-1.8-28.1-1.8-44.8-3.6-49.2c-1.6-4.3-5.6-7.1-10.1-7.2h-2.8c-11.5,1.3-18.6,2-21.5,2l-5.9-0.4
	c-1.2,9.7-1.8,19.5-1.7,29.3v2.9l0.3,3.3l-0.3,0.4l0.3,3.6c0,11,1,25.6,3.1,43.8c0,8.2-2.8,13.2-8.4,15.2c-1.4,0.6-3,0.9-4.5,0.9
	h-2.4c-7.7,0-12.8-3.8-15.5-11.4c-0.8-2.8-1.2-5.7-1.2-8.7l1.2-12.5l-0.3-0.4V303c1.6-10.6,2.4-23.8,2.4-39.6v-1.6
	c0-19.5-1.8-34.3-5.3-44.4l-0.7-6.3c0.5-6,2.7-8.9,6.5-8.9L289.9,201.8z"/>
<path class="st0" d="M458.2,187.5c6,0,17.3,0.5,28.4,9.9c1.4,1.1,2.2,2.8,2.3,4.5v0.3l-2.3,10c6.7,2,13.1,5.2,18.7,9.3
	c15.3,11.1,23,25.6,22.9,43.5v2.1c0,20.1-8.1,33.4-24.3,39.8c-6.6,2.7-13.7,4.1-20.8,4.3l-2.5,6.3c0,0.4,1.6,1,4.9,1.7
	c6.6,1.5,13,3.8,19,6.8c19.1,11.7,28.7,25.9,28.7,42.4c-0.9,26.6-11.7,41.9-32.3,45.9c-7.3,2-14.8,3-22.3,3.1v0.4l-0.3-0.4h-0.3
	l-1.6,0.4c-27.1,0-46.9-9.2-59.4-27.5c-4-8.4-6-18.1-6-29.1c0-10.8,6.9-21.6,20.7-32.3c7.9-5.4,16.9-8.9,26.4-10.2
	c2.5-6.9,2.8-10.4,1.1-10.4c-14-3.6-24.7-9.8-32.2-18.7c-7-9.3-10.5-19.3-10.5-30c0-15.7,6.6-28.7,19.8-38.8
	c9.3-5.8,18.2-8.7,26.7-8.7c0.2-5-2.2-9.6-7.2-13.7c-2.1-1.6-3.4-4.1-3.5-6.8C452.4,188.8,454.3,187.5,458.2,187.5 M436.5,360.8v2
	c0,15.6,7,25.7,21,30.2c3.8,0.8,7.7,1.2,11.6,1.2c18.3,0,30.2-5.7,35.8-17.1c2-6.2,2.5-10.6,1.5-13.2v-2.7c0-8.2-7-15.3-20.9-21.3
	c-4.3-1.4-8.8-2.1-13.3-2c-16.9,0-28.4,5.2-34.4,15.7C436.9,355.9,436.6,358.3,436.5,360.8 M439.3,259.1c0,11.4,6.5,19,19.5,23
	c4.4,1,8.9,1.4,13.3,1.3h1.6c15.2,0,25.3-4.6,30.2-13.7c1-2.6,1.5-5.3,1.6-8c0-10.9-6.8-18.9-20.5-23.9c-3.6-1.2-7.4-1.7-11.2-1.6
	h-4.3c-13.7,0-23.4,5.6-29.1,16.7C439.8,254.9,439.5,257,439.3,259.1"/>
<path class="st0" d="M558.4,201.8c6.3,0,15.3,5.4,27.1,16.3c3,1.4,6.3,2.1,9.6,2.1h11.5c24.1,0,40.6,10.3,49.5,30.8
	c2.6,7.5,3.9,23.9,3.9,49.4c0,18.1-4.3,29.8-12.8,35c-1.6,0.9-3.4,1.3-5.2,1.3h-0.8c-7.1,0-11.5-5.6-13.2-16.8v-5.1l0.3-3.5
	l-0.3-0.1l0.3-3.6v-2.9l0.3-13.1c-1.8-28.1-1.8-44.8-3.6-49.2c-1.6-4.3-5.6-7.1-10.1-7.2h-2.8c-11.5,1.3-18.6,2-21.5,2l-5.9-0.4
	c-1.2,9.7-1.8,19.5-1.7,29.3v2.9l0.3,3.3l-0.3,0.4l0.3,3.6c0,11,1,25.6,3.1,43.8c0,8.2-2.8,13.2-8.4,15.2c-1.4,0.6-3,0.9-4.5,0.9
	h-2.4c-7.6,0-12.8-3.8-15.5-11.3c-0.8-2.8-1.2-5.7-1.2-8.7l1.2-12.5l-0.3-0.4V303c1.6-10.6,2.4-23.8,2.4-39.6v-1.6
	c0-19.5-1.8-34.3-5.3-44.4l-0.7-6.3c0.5-6,2.7-8.9,6.5-8.9L558.4,201.8z"/>
<path class="st0" d="M786,324.3c2,6.8,0.8,10.9-3.5,12.2c-4.4,1.3-8.3,1.9-11.3,0.7c-3.7-1.5-7-4.5-10.4-8H760
	c-7.7,4.1-17.5,6.6-29.6,7.5c-21.6,0-36.2-6.5-43.9-19.5c-4.3-8.1-6.4-14.6-6.4-19.6c0-19,8.2-31.2,24.5-36.5
	c6.5-2.5,12.1-3.7,16.8-3.7h3.2c13.7,0,24.3,2,31.9,6h0.5c0.8-6.6,1.2-13.2,1.2-19.9c0-7.5-0.7-11.2-2-11.2c-2-0.9-4.4-0.4-7.3,0.1
	c-0.4,0-0.9,0-1.3,0c-3.2,0-13,2.5-29.2,7.6l-2.4,0.3c-8.8,0-15.8-3-21.1-9.1c-3.9-5.5-6.2-11.9-6.9-18.5c0-3.7,1.6-5.5,4.7-5.5
	c5.3,0.9,14.3,2.7,26.8,5.5c13.7,2.5,22.7,4.5,27.1,5.1c10.2,1.3,17.9,2.9,23.1,7c10.5,7.6,15.7,19.5,15.7,35.7v12.5
	C783.8,300.4,784,317.5,786,324.3 M703.5,301c1,7.7,6.2,12.1,15.6,13c2.6,0.7,5.3,1,8,0.9h2.1c11.7,0,19.5-3.9,23.6-11.7
	c0.9-2.1,1.3-4.3,1.2-6.5c0-9.6-5.8-15.9-17.3-18.8c-3.2-0.7-6.5-1-9.7-0.9c-13.7,1.5-21.5,6.9-23.5,16.3
	C702.5,294.8,702.5,297.4,703.5,301"/>
<path class="st0" d="M958.5,258.5c-2.5-22.2-13.3-31.7-45-32.4c-10-0.3-20,1.1-29.6,4.2c-8.2-3.6-20.3-5.7-36.3-6.2
	c-3.1-1.8-6.3-3.4-9.6-4.8c-11.7-9.1-20.3-13.6-25.8-13.6l-0.4,0.4c-3.8,0-6,3-6.5,8.9l0.7,6.3c3.6,8.4,5.3,23.2,5.3,44.4v1.6
	c0,15.8-0.8,29-2.4,39.6v0.3l0.3,0.4l-1.2,12.5c0,2.9,0.4,5.8,1.2,8.7c2.7,7.5,7.4,11.3,14.1,11.3h2.4c1.6,0,3.1-0.4,4.5-0.9
	c5.6-2,8.4-7,8.4-15.2c-2-18.1-3.1-32.7-3.1-43.8l-0.3-3.6l0.3-0.4l-0.3-3.3V270c-0.9-14.2,1.6-23,7.6-26.3
	c6.4-2.7,12.5-2.9,18.4-0.7c4.3,2,6.4,10.1,6.3,24.2l-0.3,37.3v2.9l-0.3,3.6l0.3,0.1l-0.3,3.5v5.1c3.5,11.2,7.9,16.8,13.2,16.8h0.8
	c1.5,0,3.1-0.4,4.5-1c5-0.6,9.1-6.1,12.4-16.8v-3.7c0.8-4.9,1.2-9.8,1.2-14.8c-0.3-17.1-0.8-30.6-1.4-40.6
	c0.2-7.2,0.6-11.5,1.1-12.8h0.9c0.3,0.1,0.7,0.1,1,0c5.6-0.3,11.3-0.3,16.9,0c7.5,0.6,11.3,3.7,11.6,9.5c0.2,5.7,0.3,19.1,0.3,40.1
	l-0.4,12.9v2.9c0,0-0.6,2.8-0.3,3.6c0,0.1,0.2,0.2,0.3,0.3c0.3,0.8-0.2,2.5-0.3,3.3c-0.1,1.7-0.1,3.5,0,5.2
	c1.8,11.5,8,16.7,13.2,16.7h0.9c1.8,0,3.6-0.4,5.2-1.2c8.5-5.2,13.7-16.1,15.5-32.4C962.8,283.4,959.5,267.3,958.5,258.5"/>
<path class="st0" d="M122.9,322.7c1.4,1.9,8.5,11.7,25.5,28c5.7,4.7,8.6,8.1,8.6,10.4c0,3.5-3.9,5.7-11.8,6.3c-6.8,0-20.2-3-40-8.9
	c-4.1-2.8-7.2-8.1-9.3-16C89.6,326,79,308.5,63.9,290c-2.6-2.5-4.2-3.8-4.9-3.8c-3.3,3.3-4.9,5.9-4.9,7.8c0,16.8-3.4,40.6-14.4,70.8
	c-3.8,12.2-8.9,19-11.1,20.9c0,0-6.6,1-6-17.1v-74.8l0,0c-0.4-12.4-0.6-27-0.6-44.1l-0.4-8.5l0.4-0.3l-0.4-4.4v-17.9l-0.3-4.1
	l0.3-0.5l-0.3-5.5v-14.2l-0.5-7l0.5-0.3l-0.5-5.6v-11.6c1-11.5-3.8-23.8-14.5-36.8v-1.1c1.6-4.3,5.8-6.4,12.7-6.4c13,0,24,7,33,20.9
	c2.8,3,4.1,5.5,4.1,7.8v0.8l-1.2,15.6v102.5h0.8c17.8-19,29-32.5,33.5-40.3c10.1-17.3,16.7-27.6,19.9-30.9c2.3-2.2,5.4-3.4,8.6-3.4
	c7.6,0,13.6,6.1,17.9,18.2l0.5,5.7v0.8c0,12.8-9.5,23.1-28.4,30.9c-8.4,4.1-14.8,8.2-19.3,12.4v0.3L122.9,322.7z"/>
<path class="st1" d="M164.3,83.3c0-2.5,1.9-4.5,4.4-4.6c0,0,0.1,0,0.1,0h18.5c5.9,0,10.5,1.6,13.5,4.6c2.3,2.2,3.5,5.3,3.5,8.5V92
	c0,6.2-3.5,9.5-7.4,11.5c6,2.1,10.2,5.5,10.2,12.5v0.1c0,9.2-7.6,14.1-19.1,14.1h-19.3c-2.5,0-4.5-1.9-4.6-4.4c0,0,0-0.1,0-0.1
	L164.3,83.3z M185.6,100.5c5.8,0,9.7-2.3,9.7-7v-0.1c0-4-3.2-6.5-9-6.5h-13v13.7H185.6z M188.3,122.2c6.2,0,9.9-2.4,9.9-7.1V115
	c0-4.3-3.5-6.9-10.6-6.9h-14.4v14.1L188.3,122.2z"/>
<path class="st1" d="M219,125.9V83.5c0-2.5,1.9-4.5,4.4-4.6c0.1,0,0.1,0,0.2,0h29.9c2.2,0,4,1.8,4,4c0,2.2-1.7,4-3.9,4
	c0,0-0.1,0-0.1,0H228v13.4h22.1c2.3,0,4.1,1.9,4,4.1c0,2.2-1.8,4-4,4c0,0,0,0-0.1,0H228v13.8h25.8c2.2,0,4,1.8,4,4c0,2.2-1.8,4-4,4
	h-30.3c-2.5,0-4.5-1.9-4.6-4.4C219,125.9,219,125.9,219,125.9 M234.3,73c-1.5,1.4-3.4,2.1-5.5,2c-1.1,0-2-0.5-2-1.5
	c0.1-0.7,0.4-1.3,0.9-1.8l4.9-6.1c1-1.4,2.6-2.2,4.3-2.1h2.6c1.7-0.1,3.3,0.7,4.3,2.1l4.9,6.1c0.5,0.5,0.8,1.1,0.9,1.8
	c0,1-1,1.5-2.1,1.5c-2,0.1-4-0.6-5.5-2l-3.8-3.3L234.3,73z"/>
<path class="st1" d="M268.3,83.2c0-2.5,2-4.6,4.5-4.6c0,0,0,0,0.1,0h1c2.2,0,3.5,1.1,4.7,2.7l25.8,33.3V83c0-2.5,2-4.4,4.5-4.4
	c2.5,0,4.4,2,4.4,4.4v43.3c0,2.4-1.9,4.4-4.3,4.5c0,0-0.1,0-0.1,0h-0.4c-2.1,0-3.5-1.1-4.7-2.7l-26.5-34.3v32.7c0,2.5-2,4.4-4.5,4.4
	c-2.5,0-4.4-2-4.4-4.4V83.2z"/>
<path class="st1" d="M326.4,83.1c0.1-2.5,2.2-4.4,4.7-4.3c2.3,0.1,4.2,2,4.3,4.3v17.3H360V83.1c0.1-2.5,2.2-4.4,4.7-4.3
	c2.3,0.1,4.2,2,4.3,4.3v43.3c-0.1,2.5-2.2,4.4-4.7,4.3c-2.3-0.1-4.2-2-4.3-4.3v-17.6h-24.6v17.6c-0.1,2.5-2.2,4.4-4.7,4.3
	c-2.3-0.1-4.2-2-4.3-4.3L326.4,83.1z"/>
<path class="st1" d="M419.3,127.5l-18-42.4c-0.3-0.7-0.5-1.4-0.5-2.1c0-2.5,2.1-4.4,4.5-4.4c0,0,0,0,0,0c2.1-0.1,4,1.3,4.6,3.2
	l14.9,37.2l15-37.5c0.7-1.8,2.4-3,4.3-3c2.4-0.1,4.4,1.9,4.5,4.3c0,0,0,0,0,0.1c0,0.7-0.2,1.3-0.4,1.9l-18.1,42.7
	c-0.7,2.2-2.9,3.7-5.2,3.7h-0.5C422.1,131.2,420,129.7,419.3,127.5"/>
<path class="st1" d="M458.8,83.1c0.3-2.5,2.5-4.3,5-4c2.1,0.2,3.7,1.9,4,4v43.3c-0.3,2.5-2.5,4.3-5,4c-2.1-0.2-3.7-1.9-4-4V83.1z"/>
<path class="st1" d="M481.6,125.9V83.5c0-2.5,1.9-4.5,4.4-4.6c0.1,0,0.1,0,0.2,0h29.9c2.2,0,4,1.8,4,4c0,2.2-1.7,4-3.9,4
	c0,0,0,0-0.1,0h-25.5v13.4h22.2c2.2,0.1,4,1.9,4,4.1c0,2.2-1.8,4-4,4h-22.2v13.8h25.8c2.2,0,4,1.8,4,4c0,2.2-1.8,4-4,4h-30.3
	C483.7,130.4,481.7,128.5,481.6,125.9C481.6,125.9,481.6,125.9,481.6,125.9 M496.9,73c-1.5,1.4-3.4,2.1-5.5,2c-1.1,0-2-0.5-2-1.5
	c0.1-0.7,0.4-1.3,0.9-1.8l4.8-6.1c1-1.4,2.6-2.2,4.3-2.1h2.7c1.7-0.1,3.3,0.7,4.3,2.1l4.8,6.1c0.5,0.5,0.8,1.1,0.9,1.8
	c0,1-1,1.5-2.1,1.5c-2,0.1-4-0.6-5.4-2l-3.8-3.3L496.9,73z"/>
<path class="st1" d="M530.9,83.2c0-2.5,2-4.6,4.5-4.6c0,0,0,0,0,0h1c2.2,0,3.5,1.1,4.7,2.7l25.7,33.3V83c0.1-2.5,2.2-4.4,4.7-4.2
	c2.3,0.1,4.1,1.9,4.2,4.2v43.3c0,2.4-1.9,4.4-4.3,4.5c0,0-0.1,0-0.1,0H571c-2.1,0-3.5-1.1-4.7-2.7l-26.5-34.3v32.7
	c0,2.5-2,4.5-4.5,4.5s-4.5-2-4.5-4.5l0,0L530.9,83.2z"/>
<path class="st1" d="M623.7,87.3h-12.5c-2.3,0.1-4.3-1.7-4.4-4c-0.1-2.3,1.7-4.3,4-4.4c0.1,0,0.3,0,0.4,0h34.2
	c2.3,0.1,4.1,2.1,4,4.4c-0.1,2.2-1.8,3.9-4,4h-12.6v39c-0.1,2.5-2.3,4.5-4.8,4.4c-2.4-0.1-4.2-2-4.4-4.4V87.3z"/>
<path class="st1" d="M658.8,83.1c0.1-2.5,2.2-4.4,4.7-4.3c2.3,0.1,4.2,2,4.3,4.3v17.3h24.6V83.1c0.1-2.5,2.2-4.4,4.7-4.3
	c2.3,0.1,4.2,2,4.3,4.3v43.3c-0.1,2.5-2.2,4.4-4.7,4.3c-2.3-0.1-4.2-2-4.3-4.3v-17.6h-24.6v17.6c-0.1,2.5-2.2,4.4-4.7,4.3
	c-2.3-0.1-4.2-2-4.3-4.3V83.1z"/>
<path class="st1" d="M711.7,124.6l19.1-42.7c0.9-2.2,3-3.7,5.4-3.7h0.4c2.4,0,4.5,1.4,5.4,3.7l19.1,42.7c0.3,0.6,0.5,1.2,0.5,1.9
	c0.1,2.3-1.8,4.3-4.1,4.3c0,0-0.1,0-0.1,0c-2,0-3.8-1.3-4.4-3.2l-4.2-9.6h-25l-4.3,9.9c-0.6,1.8-2.3,2.9-4.2,2.9
	c-2.3,0-4.2-1.8-4.2-4.1c0,0,0-0.1,0-0.1C711.2,125.9,711.4,125.2,711.7,124.6 M732.5,72.3c-1.5,1.4-3.4,2.1-5.4,2
	c-1.1,0-2-0.5-2-1.5c0.1-0.7,0.4-1.3,0.9-1.8l4.9-6.1c1-1.4,2.6-2.2,4.3-2.1h2.7c1.7-0.1,3.3,0.7,4.3,2.1l4.8,6.1
	c0.5,0.5,0.8,1.1,0.9,1.8c0,1-1,1.5-2.1,1.5c-2,0.1-4-0.6-5.4-2l-3.8-3.3L732.5,72.3z M745.4,110l-9-20.8l-9,20.8H745.4z"/>
<path class="st1" d="M771.5,83.2c0-2.5,2-4.6,4.5-4.6c0,0,0,0,0.1,0h1c1.7,0,3.3,0.9,4.2,2.4l15.6,24.4L812.5,81
	c0.8-1.5,2.4-2.4,4.1-2.4h1c2.5,0,4.6,2,4.6,4.5c0,0,0,0,0,0v43.1c0,2.5-2,4.5-4.5,4.5c0,0-0.1,0-0.1,0c-2.5,0-4.5-2-4.5-4.5V95.4
	l-12.6,18.9c-1,2.1-3.6,2.9-5.7,1.9c-0.8-0.4-1.5-1.1-1.9-1.9l-12.5-18.8v30.8c0,2.4-2,4.4-4.4,4.4c0,0-0.1,0-0.1,0
	c-2.4,0-4.4-1.9-4.4-4.2c0-0.1,0-0.1,0-0.2L771.5,83.2z"/>
<path class="st1" d="M857.5,83.2c0-2.5,2-4.6,4.5-4.6c0,0,0,0,0,0h1c1.7,0,3.3,0.9,4.2,2.4l15.6,24.4L898.5,81
	c0.8-1.5,2.4-2.4,4.1-2.4h1c2.5,0,4.5,2,4.6,4.5c0,0,0,0,0,0.1v43.1c0,2.5-2,4.5-4.4,4.5c0,0-0.1,0-0.1,0c-2.5,0-4.5-2-4.5-4.5V95.4
	l-12.6,18.9c-1,2.1-3.6,3-5.6,1.9c-0.8-0.4-1.5-1.1-1.9-1.9l-12.6-18.8v30.8c0,2.4-1.9,4.4-4.4,4.4c0,0-0.1,0-0.1,0
	c-2.4,0-4.4-1.9-4.4-4.3c0-0.1,0-0.1,0-0.2L857.5,83.2z"/>
<path class="st1" d="M935.9,110.4l-17.7-24.4c-0.6-0.9-1-2-1-3.2c0-2.4,2-4.4,4.5-4.3c0,0,0.1,0,0.1,0c2,0,3.3,1.1,4.4,2.7
	l14.3,20.7L955,81.3c1.1-1.6,2.4-2.7,4.3-2.7c2.4-0.1,4.3,1.8,4.4,4.2c0,0.1,0,0.2,0,0.2c-0.1,1.2-0.5,2.3-1.3,3.2l-17.6,24v16.1
	c-0.3,2.5-2.5,4.3-5,4c-2.1-0.2-3.7-1.9-4-4V110.4z"/>
<path class="st1" d="M752.3,53.1c-3.1-0.1-6,1.1-8.2,3.2c-1.2,0.9-1.4,2.7-0.4,3.8c0.9,1.2,2.7,1.4,3.8,0.4c0.1,0,0.1-0.1,0.2-0.1
	c1.2-1.2,2.8-1.9,4.5-1.9c2.2,0,3.6,1.1,3.6,2.9s-1.6,3-4.8,3.3c-0.6,0.1-1.2,0.4-1.6,0.9c-0.4,0.5-0.5,1.1-0.4,1.7l0.4,3.2
	c0.1,1.2,1.1,2,2.3,2h0.2c1.2,0,2.1-0.9,2.2-2.1l0.1-1.2c4.9-1,7.5-3.7,7.5-8.1C761.6,56.4,757.8,53.1,752.3,53.1"/>
<path class="st1" d="M929.7,73.1c-1.4,0-2.6-1.1-2.7-2.5c0-0.6,0.1-1.1,0.3-1.6c1.6-4.3,3.5-6.7,7.5-6.7s7.9,2.9,10.5,2.9
	c1.8,0,2.6-0.7,3.5-2.3c0.6-1.3,2.2-1.9,3.5-1.3c0.9,0.4,1.5,1.3,1.5,2.3c0,0.6-0.1,1.1-0.3,1.7c-1.6,4.3-3.5,6.7-7.5,6.7
	s-7.9-3-10.5-3c-1.8,0-2.6,0.7-3.5,2.4C931.6,72.5,930.7,73.1,929.7,73.1"/>
<path class="st1" d="M238.5,135.4c2.5-0.1,4.6,1.9,4.7,4.4c0,0.1,0,0.1,0,0.2v0.7c-0.1,2.6-2.3,4.6-4.9,4.5
	c-2.4-0.1-4.4-2.1-4.5-4.5V140c0-2.5,2-4.6,4.5-4.6C238.3,135.4,238.4,135.4,238.5,135.4"/>
<path class="st1" d="M501.1,135.4c2.5-0.1,4.6,1.9,4.7,4.4c0,0.1,0,0.1,0,0.2v0.7c-0.1,2.6-2.3,4.6-4.9,4.5
	c-2.4-0.1-4.4-2.1-4.5-4.5V140c0-2.5,2-4.6,4.5-4.6C501,135.4,501,135.4,501.1,135.4"/>
<path class="st2" d="M1227.1,71.7c-22.8,16-30,22.6-41.6,43.7c0,0-16.3-9.4-27-11.2c-1.4-17.1,4.3-30.7,11.1-47.1
	c0,0,23.3-57.9,64.1-41.7C1250.9,22.2,1262.5,53.6,1227.1,71.7z"/>
<path class="st3" d="M1359.6,158.9c-9.9,14.7-30.2,31.6-73.4-4.2c-15.4-12.8-33.9-21.5-70.2,0.5c-5.9-20-13.6-28.4-26.2-37.3
	c0,0,39.9-54.4,107-48.6c0,0,70.9,3.1,51.5,53.4C1348.2,122.7,1373.3,138.6,1359.6,158.9z"/>
<path class="st4" d="M1145,303.3c-3.1-8.4-9.3-19.8-15-32l0,0c-8.5-17.6-5.6-37.9-4.4-49.3c0-0.1,0-0.2,0-0.3c0.3-2,0.3-4,0-6
	c0,0,0-0.1,0-0.1l0,0c-0.5-3.3-1.8-6.9-5.6-8.8c-0.2-0.1-0.7-0.4-1-0.5c-1.2-0.6-2.4-1-3.7-1.2c-9.7-1.1-14,12.7-16.6,18.3
	c-13.5,28.6-62.3,45.2-62.3,45.2c-14.4,5.9-32.3,19.6-23.8,57c0,0,1.1,23.3,29.6,39c15.5,9.9,34.5,12.3,52,6.7
	c5-1.6,11-5.5,14.5-15.5c0,0,56.4,2.2,36.3-52.5"/>
<path class="st1" d="M1355.1,279.1L1355.1,279.1c0.4-11-11.6-15.4-18.9-18.4c-18-7.5-17.6-30.4-22.8-41.5
	c-26.5-57.4-86.7-42.3-99.9-38.2c-2.8,14.2-9.1,25.9-0.7,34l10.8,14c3.7,4,5.4,8.4,0.4,11.2c-4.8,2.9-11.6,4.1-4.8,12.4
	c2.8,3.1,5.6,5.6,3.1,7.8l-7.6,5.7c3.5,2.9,6.5,5.9,3.6,10.1c-3.6,4.7-9,7.7-5.3,17.9c2.6,11.1-6.4,15.6-19,13.4
	c-14.3-3.7-28.2-7-35.5-1.2c14.3,14.1,17.8,27.4,14,40.2h0.1c57.6,55.8,95.1,10.1,95.1,10.1c67.2,17.6,57.3-40.2,57.3-40.2
	s30.3-8.4,30.4-37.5"/>
<path class="st5" d="M1055.9,72.2c16.7,6.1,20.9,0.1,26.1-6.5c6.8-8.6,9.1-30.4,34.1-24.2c22.2,5.5,29.5,48.8,27.2,83.6l0,0
	c0,0,0,0.4-0.1,1.1c-0.3,3.5-0.6,6.9-1,10.1c-2.2,17.9-9.2,52.2-22.5,52.2c-6.6,0-10.9-12.3-13-17.3c-23.4-56.2-51.8-57.1-75.2-65.8
	c-20.3-7.6-6.3-27.9-7.4-26.2C1024,79.2,1031.9,63.4,1055.9,72.2"/>
</svg>
