<svg id="Layer_1" data-name="Layer 1" xmlns="http://www.w3.org/2000/svg" viewBox="0 0 1357.37 513.06"><defs><style>.cls-1,.cls-8,.cls-9{fill:#fff;}.cls-2{fill:#d2342e;}.cls-3{fill:#dc4133;}.cls-4{fill:#f69679;}.cls-5{fill:#f26649;}.cls-6{fill:#b72c26;}.cls-7,.cls-8,.cls-9{isolation:isolate;}.cls-8,.cls-9{font-size:81.55px;font-family:SanFranciscoText-MediumItalic, San Francisco Text;font-weight:500;font-style:italic;}.cls-8{letter-spacing:-0.01em;}</style></defs><title>logoft2</title><path class="cls-1" d="M259.41,314.19q3,10.2-3.54,12.2c-4.35,1.34-8.25,1.9-11.33.67-3.75-1.48-7-4.54-10.41-8h-.67q-11.47,6.15-29.61,7.48-32.43,0-43.9-19.48-6.39-12.13-6.4-19.61,0-28.56,24.55-36.55,9.72-3.74,16.81-3.74h3.23q20.54,0,31.88,6h.53a161.11,161.11,0,0,0,1.21-19.88q0-11.22-2-11.21c-2-.89-4.37-.36-7.34.13a10,10,0,0,1-1.34,0q-4.8,0-29.21,7.61l-2.4.26q-13.22,0-21.08-9.07a39.21,39.21,0,0,1-6.94-18.54q0-5.47,4.67-5.47,8,1.33,26.81,5.47,20.53,3.72,27.08,5.06,15.35.93,23.08,7,15.75,11.46,15.75,35.75V262.8q-2.4,41.24.6,51.44M176.92,291q1.47,11.61,15.61,13a29.94,29.94,0,0,0,8,.93h2.13q17.49,0,23.62-11.74a15.45,15.45,0,0,0,1.2-6.54q0-14.4-17.35-18.81a40.76,40.76,0,0,0-9.73-.93c-13.7,1.51-20.17,7.33-23.49,16.27-.63,1.72-.88,4.23,0,7.87" transform="translate(-7.9 -3.51)"/><path class="cls-1" d="M291.55,192.71q9.48,0,27.08,16.28a24.29,24.29,0,0,0,9.61,2.14h11.47q36.15,0,49.49,30.81,3.87,11.2,3.87,49.36,0,27.21-12.8,35a11,11,0,0,1-5.2,1.34h-.81q-10.68,0-13.21-16.81v-5.07l.27-3.46-.27-.14.27-3.6v-2.94l.27-13.07c-1.78-28.11-1.77-44.85-3.6-49.23a11.07,11.07,0,0,0-10.14-7.2H345q-17.21,2-21.48,2l-5.86-.39A228.31,228.31,0,0,0,316,257.07V260l.27,3.34-.27.41.27,3.6q0,16.53,3.07,43.76,0,12.27-8.41,15.2a13.11,13.11,0,0,1-4.54.94H304q-11.47,0-15.48-11.34a33,33,0,0,1-1.2-8.67l1.2-12.54-.27-.41V294q2.4-15.87,2.41-39.62V252.8q0-29.2-5.34-44.42l-.66-6.27q.79-8.94,6.53-8.94Z" transform="translate(-7.9 -3.51)"/><path class="cls-1" d="M459.77,178.4c6,0,17.3.47,28.42,9.87a6,6,0,0,1,2.26,4.54v.27l-2.26,10a59.33,59.33,0,0,1,18.68,9.33q22.93,16.68,22.94,43.5V258q0,30.15-24.28,39.76a57.18,57.18,0,0,1-20.81,4.26l-2.58,6.29c0,.44,1.64,1,4.94,1.74A84.45,84.45,0,0,1,506,316.88q28.69,17.61,28.68,42.43-1.32,39.88-32.28,45.88a89.21,89.21,0,0,1-22.28,3.08v.4l-.26-.4h-.27l-1.6.4q-40.69,0-59.37-27.48-6-12.54-6-29.09,0-16.28,20.69-32.28a61.43,61.43,0,0,1,26.44-10.19q3.74-10.39,1.07-10.4-21-5.33-32.16-18.67-10.55-13.94-10.54-29.93,0-23.61,19.75-38.82,14-8.69,26.68-8.67.27-7.48-7.21-13.74a8.77,8.77,0,0,1-3.46-6.81c0-2.75,2-4.14,5.87-4.14M438,351.75v2q0,23.49,21,30.16a53.82,53.82,0,0,0,11.6,1.2q27.5,0,35.76-17.08c2-6.23,2.44-10.63,1.47-13.2v-2.68q0-12.27-21-21.34a40.25,40.25,0,0,0-13.34-2q-25.33,0-34.42,15.74a28.69,28.69,0,0,0-1.07,7.2m2.8-101.65q0,17.07,19.48,23a58.73,58.73,0,0,0,13.35,1.33h1.6q22.8,0,30.14-13.75a25.15,25.15,0,0,0,1.61-8q0-16.4-20.55-23.88a33.22,33.22,0,0,0-11.2-1.6H471q-20.55,0-29.09,16.68a29.59,29.59,0,0,0-1.07,6.27" transform="translate(-7.9 -3.51)"/><path class="cls-1" d="M560.05,192.71q9.47,0,27.08,16.28a24.29,24.29,0,0,0,9.61,2.14h11.47q36.15,0,49.49,30.81,3.87,11.2,3.87,49.36,0,27.21-12.81,35a11,11,0,0,1-5.2,1.34h-.81q-10.66,0-13.2-16.81v-5.07l.27-3.46-.27-.14.27-3.6v-2.94l.26-13.07c-1.77-28.11-1.76-44.85-3.59-49.23a11.08,11.08,0,0,0-10.15-7.2h-2.8q-17.2,2-21.48,2l-5.87-.39a228.31,228.31,0,0,0-1.73,29.34V260l.27,3.34-.27.41.27,3.6q0,16.53,3.07,43.76,0,12.27-8.41,15.2a13.05,13.05,0,0,1-4.53.94h-2.41q-11.48,0-15.47-11.34a33,33,0,0,1-1.2-8.67L557,294.7l-.26-.41V294q2.41-15.93,2.42-39.68v-1.61q0-29.2-5.33-44.42l-.67-6.27q.79-8.94,6.54-8.94Z" transform="translate(-7.9 -3.51)"/><path class="cls-1" d="M787.57,315.25q3,10.2-3.53,12.21c-4.37,1.33-8.26,1.89-11.35.67-3.74-1.48-7-4.54-10.41-8h-.67q-11.46,6.15-29.61,7.48-32.41,0-43.89-19.48-6.4-12.13-6.41-19.61,0-28.54,24.55-36.55,9.75-3.74,16.81-3.74h3.2q20.55,0,31.89,6h.53a163.08,163.08,0,0,0,1.21-19.88q0-11.22-2-11.21c-2-.88-4.37-.36-7.34.14q-.66,0-1.32,0-4.82,0-29.22,7.6l-2.41.26q-13.2,0-21.08-9.07a39.24,39.24,0,0,1-6.93-18.54q0-5.47,4.66-5.47,8,1.33,26.83,5.47c13.69,2.49,22.66,4.49,27.08,5.06,10.15,1.34,17.91,2.94,23.08,6.95Q787,227,787,251.29v12.54q-2.4,41.22.61,51.43M705.07,292q1.45,11.61,15.6,12.95a29.94,29.94,0,0,0,8,.93h2.13q17.48,0,23.61-11.74a15.12,15.12,0,0,0,1.2-6.54q0-14.38-17.34-18.81a40.39,40.39,0,0,0-9.74-.93q-20.55,2.28-23.47,16.28-1.35,2.4,0,7.86" transform="translate(-7.9 -3.51)"/><path class="cls-1" d="M960.14,249.46c-2.48-22.15-13.26-31.68-45-32.4a89.85,89.85,0,0,0-29.57,4.18q-12.27-5.43-36.33-6.19a97.73,97.73,0,0,0-9.6-4.81q-17.6-13.61-25.73-13.61l-.4.4q-5.73,0-6.54,8.94l.67,6.27Q813,224.8,813,256.66v1.61q0,23.75-2.41,39.63v.25l.27.41-1.2,12.54a33,33,0,0,0,1.2,8.67q4,11.33,14.14,11.34h2.4a13.11,13.11,0,0,0,4.54-.94q8.4-2.93,8.4-15.2-3.06-27.23-3.06-43.76l-.28-3.6.28-.41-.28-3.33v-2.93q-1.32-21.34,7.61-26.29,9.61-4,18.41-.66,6.4,3.07,6.28,24.15L869,295.49v2.94l-.26,3.59.26.14-.26,3.47v5.07q5.21,16.8,13.21,16.81h.79a10.67,10.67,0,0,0,4.45-1q7.42-.84,12.37-16.76V306a81.69,81.69,0,0,0,1.2-14.81c-.32-17.11-.78-30.61-1.37-40.59.24-7.23.59-11.47,1.07-12.76h.94a1.24,1.24,0,0,0,1,0,153.85,153.85,0,0,1,16.91,0q11.21.87,11.55,9.47t.32,40.1l-.4,12.93v2.94s-.57,2.75-.26,3.6c0,.09.23.18.26.27.28.78-.23,2.5-.26,3.33a37.6,37.6,0,0,0,0,5.2c1.8,11.54,8,16.68,13.21,16.68h.93a12.85,12.85,0,0,0,5.21-1.2q12.79-7.87,15.47-32.42c-.9-24.46-4.23-40.54-5.21-49.23" transform="translate(-7.9 -3.51)"/><path class="cls-1" d="M124.47,313.63c1.38,1.91,8.5,11.67,25.51,28q8.55,7,8.56,10.4,0,5.34-11.77,6.26-10.23,0-40-8.86-6.1-4.14-9.32-16-9.32-24.6-31.92-52.4c-2.55-2.54-4.19-3.82-4.9-3.82-3.26,3.27-4.89,5.86-4.89,7.8,0,16.8-3.4,40.63-14.41,70.78-3.79,12.14-8.88,18.84-11.12,20.84,0,0-6.58,1-6-17.11V284.73h0c-.39-12.37-.58-27-.58-44.06l-.45-8.56.45-.3-.45-4.44V209.45l-.31-4.11.31-.47-.31-5.5V185.16l-.46-7,.46-.31-.46-5.65V160.57q1.52-17.25-14.51-36.81v-1.08q2.43-6.42,12.68-6.41,19.55,0,33,20.93,4.13,4.43,4.13,7.79v.76l-1.22,15.58V263.84h.77Q84,235.27,90.71,223.51q15.12-26,19.86-30.85a12.56,12.56,0,0,1,8.55-3.37q11.47,0,17.87,18.18l.47,5.65v.76q0,19.26-28.42,30.86-12.53,6.12-19.25,12.39v.29Z" transform="translate(-7.9 -3.51)"/><path class="cls-1" d="M166,74.27a4.49,4.49,0,0,1,4.4-4.56h18.7c5.89,0,10.53,1.62,13.47,4.56A11.55,11.55,0,0,1,206,82.81V83c0,6.18-3.54,9.49-7.36,11.49,6,2,10.23,5.51,10.23,12.5v.15c0,9.19-7.58,14.12-19.06,14.12H170.51a4.49,4.49,0,0,1-4.56-4.4V74.27Zm21.26,17.15c5.81,0,9.71-2.29,9.71-7v-.14c0-4-3.23-6.55-9-6.55h-13V91.42Zm2.65,21.77c6.18,0,9.93-2.42,9.93-7.06V106c0-4.33-3.45-6.91-10.59-6.91H174.85v14.12Z" transform="translate(-7.9 -3.51)"/><path class="cls-1" d="M220.57,116.84V74.45A4.49,4.49,0,0,1,225,69.89h30.09a4.08,4.08,0,0,1,4,4,4,4,0,0,1-3.95,4H229.62V91.38h22.15a4.1,4.1,0,0,1,4,4.12,4,4,0,0,1-4,4H229.62v13.83h25.83a4.08,4.08,0,0,1,4.05,4,4,4,0,0,1-4,4H225.14a4.5,4.5,0,0,1-4.57-4.43v-.13M235.88,64a7.43,7.43,0,0,1-5.45,2c-1.1,0-2-.51-2-1.47a3.63,3.63,0,0,1,.88-1.76l4.86-6.11a5,5,0,0,1,4.26-2.13h2.71a4.9,4.9,0,0,1,4.27,2.13l4.86,6.11a3.63,3.63,0,0,1,.88,1.76c0,1-1,1.47-2.13,1.47a7.52,7.52,0,0,1-5.45-2l-3.83-3.32Z" transform="translate(-7.9 -3.51)"/><path class="cls-1" d="M269.87,74.16a4.53,4.53,0,0,1,4.5-4.56h1.06c2.21,0,3.46,1.1,4.71,2.65l25.71,33.38V73.94a4.45,4.45,0,1,1,8.9,0V117.2a4.4,4.4,0,0,1-4.31,4.49H310c-2.13,0-3.45-1.1-4.7-2.72L278.77,84.68v32.67a4.45,4.45,0,1,1-8.9,0h0Z" transform="translate(-7.9 -3.51)"/><path class="cls-1" d="M328,74a4.52,4.52,0,0,1,9,0v17.3h24.58V74a4.53,4.53,0,0,1,9,0v43.26a4.53,4.53,0,0,1-9,0V99.69H337v17.58a4.52,4.52,0,0,1-9,0Z" transform="translate(-7.9 -3.51)"/><path class="cls-1" d="M420.9,118.46l-18-42.39a4.92,4.92,0,0,1-.52-2.13,4.47,4.47,0,0,1,4.52-4.42h0a4.75,4.75,0,0,1,4.64,3.24l14.86,37.16,15.08-37.45a4.68,4.68,0,0,1,4.35-3,4.38,4.38,0,0,1,4.48,4.28v.07a5,5,0,0,1-.44,1.91l-18.1,42.68a5.39,5.39,0,0,1-5.22,3.67h-.52a5.37,5.37,0,0,1-5.15-3.67" transform="translate(-7.9 -3.51)"/><path class="cls-1" d="M460.41,74a4.53,4.53,0,0,1,9,0v43.26a4.53,4.53,0,0,1-9,0Z" transform="translate(-7.9 -3.51)"/><path class="cls-1" d="M483.21,116.84V74.45a4.49,4.49,0,0,1,4.42-4.56h30.14a4.08,4.08,0,0,1,4,4,4,4,0,0,1-3.95,4H492.26V91.38h22.15a4.08,4.08,0,0,1,4,4.12,4,4,0,0,1-4,4H492.26v13.83h25.88a4.09,4.09,0,0,1,4,4,4,4,0,0,1-4,4H487.77a4.5,4.5,0,0,1-4.56-4.44v-.12M498.51,64a7.4,7.4,0,0,1-5.44,2c-1.1,0-2-.51-2-1.47a3.63,3.63,0,0,1,.88-1.76l4.85-6.11a5,5,0,0,1,4.27-2.13h2.65A4.9,4.9,0,0,1,508,56.65l4.85,6.11a3.65,3.65,0,0,1,.89,1.76c0,1-1,1.47-2.14,1.47a7.49,7.49,0,0,1-5.44-2l-3.83-3.32Z" transform="translate(-7.9 -3.51)"/><path class="cls-1" d="M532.5,74.16A4.54,4.54,0,0,1,537,69.6h1c2.21,0,3.46,1.1,4.71,2.65l25.71,33.38V73.94a4.45,4.45,0,0,1,8.9,0V117.2a4.4,4.4,0,0,1-4.31,4.49h-.47c-2.13,0-3.46-1.1-4.71-2.72L541.4,84.68v32.67a4.45,4.45,0,1,1-8.9,0h0Z" transform="translate(-7.9 -3.51)"/><path class="cls-1" d="M625.34,78.28h-12.5a4.2,4.2,0,0,1-.41-8.39,2.81,2.81,0,0,1,.41,0h34.21a4.2,4.2,0,0,1,0,8.39H634.47v39a4.57,4.57,0,0,1-9.13,0Z" transform="translate(-7.9 -3.51)"/><path class="cls-1" d="M660.36,74a4.53,4.53,0,0,1,9,0v17.3h24.58V74a4.53,4.53,0,0,1,9,0v43.26a4.53,4.53,0,0,1-9,0V99.69H669.41v17.58a4.53,4.53,0,0,1-9,0Z" transform="translate(-7.9 -3.51)"/><path class="cls-1" d="M713.33,115.51l19.13-42.68a5.75,5.75,0,0,1,5.45-3.67h.44a5.66,5.66,0,0,1,5.37,3.67l19.13,42.68a4,4,0,0,1,.52,1.91,4.25,4.25,0,0,1-4.15,4.35h-.12a4.68,4.68,0,0,1-4.42-3.17L750.49,109h-25l-4.35,9.93a4.35,4.35,0,0,1-4.19,2.88,4.16,4.16,0,0,1-4.2-4.12v-.08a4.8,4.8,0,0,1,.59-2.06m20.75-52.24a7.39,7.39,0,0,1-5.44,2c-1.11,0-2-.52-2-1.48a3.63,3.63,0,0,1,.88-1.76l4.86-6.11a5,5,0,0,1,4.27-2.13h2.65a4.91,4.91,0,0,1,4.26,2.13L748.43,62a3.63,3.63,0,0,1,.88,1.76c0,1-1,1.48-2.13,1.48a7.52,7.52,0,0,1-5.45-2L737.91,60Zm13,37.67L738,80.12l-9,20.82Z" transform="translate(-7.9 -3.51)"/><path class="cls-1" d="M773.14,74.16a4.54,4.54,0,0,1,4.52-4.56h1.05a4.79,4.79,0,0,1,4.2,2.42l15.6,24.43L814.18,72a4.57,4.57,0,0,1,4.12-2.35h1a4.54,4.54,0,0,1,4.57,4.51v43.16a4.48,4.48,0,0,1-4.46,4.5h-.11a4.56,4.56,0,0,1-4.48-4.5V86.37l-12.68,18.91a4.22,4.22,0,0,1-7.58,0l-12.5-18.76v30.83a4.4,4.4,0,0,1-4.4,4.42h-.09a4.35,4.35,0,0,1-4.42-4.28V74.16Z" transform="translate(-7.9 -3.51)"/><path class="cls-1" d="M859.07,74.16a4.54,4.54,0,0,1,4.52-4.56h1A4.75,4.75,0,0,1,868.82,72l15.6,24.43L900.09,72a4.55,4.55,0,0,1,4-2.32h1a4.53,4.53,0,0,1,4.56,4.5V117.3a4.48,4.48,0,0,1-4.46,4.5h-.1a4.56,4.56,0,0,1-4.49-4.5V86.4l-12.58,18.91a4.22,4.22,0,0,1-7.58,0L868,86.55v30.83a4.4,4.4,0,0,1-4.38,4.42h-.1a4.34,4.34,0,0,1-4.42-4.26V74.16Z" transform="translate(-7.9 -3.51)"/><path class="cls-1" d="M937.42,101.38,919.69,77a5.66,5.66,0,0,1-1-3.16,4.4,4.4,0,0,1,4.47-4.35h.09c2,0,3.31,1.11,4.42,2.73L942,92.92l14.57-20.74c1.11-1.62,2.43-2.73,4.34-2.73a4.3,4.3,0,0,1,4.42,4.18v.24a5.54,5.54,0,0,1-1.25,3.23L946.5,101.16v16.12a4.53,4.53,0,0,1-9,0Z" transform="translate(-7.9 -3.51)"/><path class="cls-1" d="M753.88,44a11.49,11.49,0,0,0-8.24,3.22,2.71,2.71,0,1,0,3.57,4.09,6.53,6.53,0,0,1,4.56-1.85c2.19,0,3.56,1.08,3.56,2.9s-1.6,3-4.77,3.3a2.33,2.33,0,0,0-1.61.86,2.28,2.28,0,0,0-.42,1.73l.37,3.17a2.26,2.26,0,0,0,2.24,2.06h.23a2.33,2.33,0,0,0,2.24-2.09l.11-1.19c4.89-1,7.47-3.74,7.47-8.06,0-4.87-3.74-8.14-9.31-8.14" transform="translate(-7.9 -3.51)"/><path class="cls-1" d="M931.28,64a2.67,2.67,0,0,1-2.72-2.5,4.5,4.5,0,0,1,.29-1.62c1.55-4.27,3.53-6.69,7.51-6.69s7.94,2.86,10.52,2.86c1.76,0,2.57-.66,3.46-2.28a2.66,2.66,0,0,1,5.07,1,4.71,4.71,0,0,1-.29,1.7c-1.55,4.26-3.53,6.69-7.51,6.69s-7.94-2.95-10.52-2.95c-1.77,0-2.57.74-3.46,2.36A2.66,2.66,0,0,1,931.28,64" transform="translate(-7.9 -3.51)"/><path class="cls-1" d="M240.07,126.34a4.56,4.56,0,0,1,4.68,4.44v.85a4.72,4.72,0,0,1-9.43,0V131a4.58,4.58,0,0,1,4.54-4.62h.21" transform="translate(-7.9 -3.51)"/><path class="cls-1" d="M502.71,126.34a4.56,4.56,0,0,1,4.68,4.44v.85a4.72,4.72,0,0,1-9.43,0V131a4.58,4.58,0,0,1,4.54-4.62h.21" transform="translate(-7.9 -3.51)"/><path class="cls-2" d="M1228.71,62.63c-22.82,16-30,22.57-41.57,43.7,0,0-16.3-9.41-27-11.18-1.36-17.07,4.3-30.71,11.14-47.07,0,0,23.32-57.92,64.11-41.7C1252.52,13.15,1264.14,44.63,1228.71,62.63Z" transform="translate(-7.9 -3.51)"/><path class="cls-3" d="M1361.19,149.89c-9.87,14.68-30.22,31.63-73.42-4.22-15.44-12.8-33.88-21.55-70.24.54-5.88-20-13.6-28.43-26.24-37.32,0,0,39.93-54.42,107-48.64,0,0,70.91,3.16,51.48,53.38C1349.81,113.63,1374.85,129.63,1361.19,149.89Z" transform="translate(-7.9 -3.51)"/><path class="cls-4" d="M1146.64,294.27c-3.1-8.44-9.31-19.79-15-32h0c-8.51-17.62-5.55-37.86-4.45-49.33a.61.61,0,0,1,.06-.32,20.11,20.11,0,0,0,0-6v-.12h0c-.46-3.27-1.83-6.88-5.59-8.82l-1-.47A11.75,11.75,0,0,0,1117,196c-9.7-1.11-14,12.74-16.57,18.31C1086.9,243,1038,259.53,1038,259.53c-14.38,5.94-32.3,19.64-23.83,57,0,0,1.1,23.36,29.57,39a61.53,61.53,0,0,0,52,6.72c5-1.61,11-5.52,14.51-15.54,0,0,56.38,2.19,36.3-52.45" transform="translate(-7.9 -3.51)"/><path class="cls-5" d="M1356.72,270h0c.45-10.95-11.63-15.38-19-18.44-18-7.53-17.64-30.41-22.77-41.52-26.51-57.39-86.7-42.3-99.94-38.17-2.82,14.17-9.14,25.9-.73,34l10.82,14c3.72,4,5.43,8.39.4,11.21-4.86,2.92-11.59,4.1-4.81,12.43,2.76,3.1,5.57,5.61,3.11,7.82l-7.62,5.71c3.52,2.89,6.54,5.89,3.61,10.12-3.59,4.69-9,7.68-5.31,17.93,2.63,11.09-6.37,15.64-19,13.43-14.27-3.69-28.21-6.94-35.47-1.2,14.34,14.08,17.8,27.39,14,40.2h.09c57.63,55.79,95.06,10.1,95.06,10.1,67.19,17.62,57.26-40.23,57.26-40.23s30.29-8.42,30.37-37.48" transform="translate(-7.9 -3.51)"/><path class="cls-6" d="M1057.47,63.16c16.66,6.11,20.87.09,26.14-6.52,6.82-8.57,9.08-30.39,34.07-24.21,22.22,5.5,29.5,48.76,27.17,83.62h0a9.22,9.22,0,0,1-.09,1.09c-.25,3.48-.6,6.86-1,10.09-2.23,17.85-9.17,52.18-22.53,52.18-6.59,0-10.88-12.27-13-17.25C1084.82,106,1056.45,105,1033,96.32c-20.33-7.56-6.25-27.93-7.45-26.17,0,0,7.9-15.8,31.88-7" transform="translate(-7.9 -3.51)"/><g class="cls-7"><text class="cls-8" transform="translate(90.99 493.67)">V</text><text class="cls-9" transform="translate(140.57 493.67)">ẻ đẹp vượt qua mọi ước mơ</text></g></svg>